<?xml version="1.0" standalone="no"?><!DOCTYPE svg PUBLIC "-//W3C//DTD SVG 1.1//EN" "http://www.w3.org/Graphics/SVG/1.1/DTD/svg11.dtd"><svg t="1648290481122" class="icon" viewBox="0 0 1562 1024" version="1.1" xmlns="http://www.w3.org/2000/svg" p-id="7313" xmlns:xlink="http://www.w3.org/1999/xlink" width="305.078125" height="200"><defs><style type="text/css"></style></defs><path d="M263.548 505.843c45.172-8.829 27.096-141.29 9.019-185.468C249.98 262.972 168.654 161.39 254.49 64.28c85.836-97.148-302.68 8.79-207.825 287.011 31.644 97.148 171.672 158.984 216.883 154.55z m144.537-203.125c-9.02 44.18-54.192 75.059-81.326 79.492-4.51 0-4.51 0-4.51-4.433-4.51-30.88-9.019-57.402-18.076-75.059-4.51-8.828-9.02-17.656-9.02-22.09v-4.394c13.567-17.657 36.154-61.836 0-92.753-45.172-39.746 140.066-13.223 112.932 119.237z m840.281 203.125c-45.173-8.829-27.096-141.29-9.02-185.468 22.587-57.403 103.913-158.984 18.078-256.094-85.836-97.148 302.68 8.79 207.825 287.011-31.644 97.148-171.672 158.984-216.883 154.55zM1103.83 302.718c9.019 44.18 54.192 75.059 81.326 79.492 4.51 0 4.51 0 4.51-4.433 4.51-30.88 9.019-57.402 18.076-75.059 4.51-8.828 4.51-13.261 9.02-22.09 0 0 4.51-4.394 0-4.394-13.568-17.657-36.154-61.836 0-92.753 45.172-39.746-140.066-13.223-112.932 119.237z m207.787 393.026c-9.02-13.262-18.039-22.09-31.606-22.09h-99.365c-4.548 0-4.548 0 0-4.433 4.51-8.79 4.51-17.656 9.02-26.485 0 0 0-4.433 4.51-4.433h90.345c13.567 0 22.586-8.79 22.586-22.051s-9.02-22.09-22.548-22.09h-81.365c-4.51 0-4.51-4.433-4.51-4.433v-4.395c0-123.632-94.854-229.609-234.92-282.616v-4.395c4.51-4.433 4.51-13.261 4.51-22.09 0-30.917-27.097-57.401-63.25-57.401-31.606 0-58.702 22.05-63.25 48.535 0 0 0 4.434-4.51 4.434-22.547-4.395-45.172-4.395-72.268-4.395-31.644 0-54.23 0-81.326 4.395-4.51 0-9.02-4.395-9.02-4.395-4.547-26.523-31.643-48.574-58.739-48.574-36.153 0-63.25 26.484-63.25 57.402 0 8.79 0 13.223 4.51 22.09 0 4.394 4.51 4.394 0 8.79-135.518 53.006-225.863 158.983-225.863 278.22v4.395s0 4.433-4.548 4.433H222.885c-13.568 0-22.587 8.829-22.587 22.09 0 13.223 9.02 22.051 22.548 22.051h108.46c4.51 0 4.51 0 4.51 4.433 0 8.829 4.51 17.657 9.02 26.485 0 0 0 4.433-4.51 4.433H222.885c-13.568 0-22.587 8.79-22.587 22.09 0 13.223 9.02 22.051 22.548 22.051H371.97c27.096 39.746 58.701 75.097 103.874 101.581 0 0 4.548 4.395 0 4.395l-49.682 48.574c-9.02 8.828-9.02 26.523 0 35.351 4.51 4.395 9.057 8.79 18.076 8.79 4.51 0 13.568-4.395 18.077-8.79l58.74-57.402c0-4.433 4.51 0 4.51 0 9.019 4.395 18.076 8.79 22.548 8.79 0 0 4.548 0 0 4.433l-63.211 70.664c-9.058 8.828-9.058 26.484 0 35.312 4.51 4.434 9.019 8.829 18.076 8.829 4.51 0 13.53-4.395 18.077-8.79l85.836-83.925c4.51-4.434 4.51 0 4.51 0 45.172 13.261 99.364 22.09 149.046 22.09 72.307 0 135.557-13.262 194.297-35.352h4.51l81.325 79.492c4.51 4.433 9.02 8.828 18.077 8.828 4.51 0 13.529-4.395 18.039-8.79 9.057-8.866 9.057-26.522 0-35.35l-67.76-70.664 27.135-13.262h4.51l63.249 61.836c4.51 4.433 9.019 8.828 18.076 8.828 4.51 0 13.53-4.395 18.039-8.828 9.057-8.828 9.057-26.485 0-35.313l-54.192-57.402v-4.433c27.134-22.09 54.192-48.536 72.269-75.059 0 0 0-4.433 4.51-4.433h126.498c13.567 0 22.587-8.79 22.587-22.051zM1117.396 580.9C1112.886 717.795 963.8 828.166 778.6 828.166c-67.798 0-135.557-17.618-185.24-44.14-4.509-4.396-4.509-4.396 4.51-4.396 40.664 13.262 63.25 13.262 112.932 13.262 198.806 0 361.42-119.238 361.42-264.96 0-35.313-4.51-61.835-22.548-92.753-4.548-4.395 4.471 0 9.02 4.433 36.114 39.746 58.7 88.282 58.7 141.29z" p-id="7314" fill="#ffffff"></path></svg>