<?xml version="1.0" encoding="UTF-8"?>
<svg width="722px" height="599px" viewBox="0 0 722 599" version="1.1" xmlns="http://www.w3.org/2000/svg" xmlns:xlink="http://www.w3.org/1999/xlink">
    <!-- Generator: Sketch 60.1 (88133) - https://sketch.com -->
    <title>nv5</title>
    <desc>Created with Sketch.</desc>
    <defs>
        <path d="M144.709647,243.358983 L83.7072076,227.185378 C71.2499274,219.649345 64.1643841,201.677095 62.4505776,173.268629 C60.7367711,144.860162 57.6478221,110.569098 53.1837306,70.395436 C52.4438534,66.0761665 52.4438534,62.866182 53.1837306,60.7654825 C54.2935463,57.6144333 54.4739731,45.9230103 48.7401068,37.3956529 C44.9175293,31.7107479 38.9427305,20.3628127 30.8157105,3.35184736 C28.5531981,0.459679529 26.0172292,-0.560840998 23.2078037,0.290285776 C18.9936654,1.56697594 18.010312,6.12054034 20.0784068,10.1306708 C21.4571366,12.8040911 25.812273,22.1270749 33.1438161,38.0996222 L24.1748042,21.1137857 C21.8047262,19.5659209 19.7275465,19.3119206 17.9432652,20.351785 C15.2668431,21.9115814 14.2545996,25.0778164 16.7462341,29.8277113 C18.4073237,32.9943078 20.8835138,37.4640009 24.1748042,43.2367906 L14.9833931,27.5650301 C12.3683853,26.5240811 10.4781736,26.5240811 9.31275801,27.5650301 C7.56463469,29.1264537 6.77588058,31.0170832 6.77588058,33.2499351 L16.6715559,48.5322526 L6.77588058,34.9078968 C4.45595141,34.2465923 2.68765954,34.4958921 1.47100495,35.6557964 C-0.353976919,37.3956529 0.0346766278,38.9814821 0.0346766278,40.543448 L10.3282721,54.7996407 C11.1891606,55.9899165 11.6196049,57.0552712 11.6196049,57.9957049 C11.6196049,59.4063553 15.5998969,73.7739524 23.2078037,77.9363716 L15.3292187,221.404616 C20.0199137,236.002685 33.2240507,251.443319 54.9416296,267.726518 L125.578807,303.755773 L144.709647,243.358983 Z" id="path-1"></path>
        <polygon id="path-3" points="53.734097 14.3517673 36.9848829 48.4094139 -1.90901861e-13 34.6973483 16.4081757 0"></polygon>
        <polygon id="path-5" points="57.990263 31.2137457 26.5382516 48.4094139 0 29.1286481 25.6064118 4.68546225e-15"></polygon>
        <path d="M323.673357,81.3551945 L176.53805,11.9384974 C133.530046,-7.61073402 103.293646,-3.1511369 85.8288495,25.3172887 L0,196.95974 L85.8288495,225.023979 L133.144343,121.10952 C145.002927,94.4303513 161.668564,85.0905749 183.141254,93.090191 L324.532665,167.161134 L323.673357,81.3551945 Z" id="path-7"></path>
        <path d="M152.87455,48.5979156 L89.3417938,120.927882 C83.8901553,126.688128 77.0950916,129.7619 68.9566028,130.149199 C60.5631539,130.872092 54.023401,126.113363 49.1872824,117.577882 C40.9556228,103.04946 38.4927522,63.8568325 41.7986704,0 L33.5063275,0.15025092 L7.72206268,6.24423064 L0,126.81683 C2.9743114,160.973337 17.890762,181.984957 44.7493518,189.851689 C71.6079416,197.718421 97.9086301,191.321423 123.651417,170.660693 L194.187578,105.579265 L152.87455,48.5979156 Z" id="path-9"></path>
        <path d="M63.2107038,44.2588085 C65.5945978,38.903343 69.1215117,37.4067187 73.7914454,39.7689357 C80.7963461,43.3122611 73.9894439,67.6628155 63.2107038,67.6628155 C60.088115,83.7649151 61.4795179,96.8600662 67.3849126,106.948269 C49.7507596,119.38914 32.9662723,121.892716 17.0314506,114.458998 C20.5899252,111.949255 25.2259724,109.445678 30.9395923,106.948269 C39.5100221,103.202154 40.808241,100.097538 40.1844346,94.6019556 C39.7685638,90.9382343 39.1279142,87.902973 38.262486,85.4961717 C24.8404421,89.1415297 15.5401783,87.1646956 10.3616945,79.5656694 C7.13860589,74.836035 4.79432667,68.6428426 3.73883213,61.3184803 C3.44907361,59.3077676 0.092634053,60.5674807 0.00561190484,58.3931471 C-0.155710248,54.3623553 3.20971187,46.7065561 3.82829878,42.1809092 C4.58991828,36.6088208 5.98363316,30.69486 8.11029969,24.5207962 C16.2900356,0.773673707 24.3678911,-1.16027243 29.4692162,0.409427854 C34.5705414,1.97912814 36.4728598,7.71391633 36.4728598,12.5060145 C36.4728598,17.2981127 36.8440173,27.3241157 48.0147307,28.9086757 C55.4618729,29.9650491 60.5271973,35.0817601 63.2107038,44.2588085 Z" id="path-11"></path>
        <path d="M581.39713,334.937791 C560.119194,391.543755 525.088707,423.345266 500.210573,432.881655 C462.893372,447.186239 437.254961,448.102361 380.17144,411.05964 L240.572621,318.929221 C213.978633,300.970648 192.160787,300.970648 175.119082,318.929221 C158.077377,336.887794 122.76898,373.590241 69.1938909,429.036562 L0,367.536013 L127.67939,226.437588 C161.478568,191.806448 194.522701,181.155008 226.811789,194.483268 L408.620152,258.035126 C414.979016,243.741764 421.089069,225.087685 426.95031,202.072889 C432.811552,179.058093 436.838942,156.127681 439.03248,133.281655 C460.418486,118.464481 472.665346,99.7197278 475.773061,77.0473967 C475.76354,76.3931881 481.418151,74.1116188 481.900302,73.5493128 L448.753673,4.85836107 C448.740337,4.6001863 449.49882,3.93463001 451.029122,2.86169219 C452.559423,1.78875437 454.222703,0.834856971 456.018963,5.68434189e-14 L491.428398,70.0840461 L571.894615,42.6453605 C594.612637,83.0915292 605.971648,130.722293 605.971648,185.537652 C605.971648,240.353012 597.780142,290.153058 581.39713,334.937791 Z" id="path-13"></path>
    </defs>
    <g id="页面-1" stroke="none" stroke-width="1" fill="none" fill-rule="evenodd">
        <g id="画板" transform="translate(-4480.000000, -1604.000000)">
            <g id="女" transform="translate(2169.000000, 1446.000000)">
                <g id="nv5" transform="translate(2311.000000, 158.000000)">
                    <g id="编组-39" transform="translate(413.380132, 97.882771)">
                        <mask id="mask-2" fill="white">
                            <use xlink:href="#path-1"></use>
                        </mask>
                        <use id="路径-162" fill="#FFC7CA" xlink:href="#path-1"></use>
                        <path d="M62.4473167,173.745905 C46.8180932,189.360623 38.5052221,197.43843 37.5087034,197.979325 C36.0139254,198.790669 28.4401905,204.644008 16.0964432,204.644008 L15.6118292,211.490706 C27.0504669,210.576308 34.7950744,207.335335 38.8456517,201.767786 L62.4473167,175.218703 L62.4473167,173.745905 Z" id="路径-186" fill="#000000" mask="url(#mask-2)"></path>
                        <path d="M95.4723399,231.860915 L77.1628898,257.325385 C70.0993701,265.992394 64.9086701,270.884669 61.5907898,272.002211 L51.6391272,265.452454 C60.0268095,261.288975 67.332345,256.555978 73.5557336,251.253462 C79.7791221,245.950947 87.0846576,239.486765 95.4723399,231.860915 Z" id="路径-187" fill="#000000" mask="url(#mask-2)"></path>
                    </g>
                    <path d="M436.461572,97.9183826 C439.322732,97.0501931 441.917567,98.0572027 444.206015,100.89984 L444.340276,101.06917 L444.370724,101.118382 L445.094324,102.632281 C452.830656,118.784123 458.547072,129.613011 462.237949,135.110851 C464.854277,139.008069 466.44206,143.837262 467.059216,148.920994 C467.535982,152.848277 467.359965,156.68408 466.744871,158.578912 L466.702255,158.705076 C465.982148,160.752919 465.982148,163.920595 466.715693,168.212498 L467.167589,172.308491 C469.005619,189.0629 470.599909,204.773046 471.95046,219.438947 L472.167332,221.808049 L471.6375,221.85625 L471.30257,218.209177 C469.867131,202.719215 468.162062,186.074252 466.189101,168.286659 C465.46247,164.037922 465.444304,160.843146 466.145034,158.692032 L466.200355,158.52862 C466.818334,156.771207 467.009681,152.927561 466.531072,148.985098 C465.939758,144.114234 464.445135,139.485347 462.002012,135.719179 L461.446282,134.87943 C457.809976,129.326933 452.360046,118.988407 445.091695,103.856947 L443.903759,101.375164 L443.789037,101.230226 C441.673707,98.6034235 439.348926,97.6659222 436.777125,98.3806116 L436.616066,98.4274306 C432.81004,99.5823297 431.588312,103.706759 433.572559,107.727789 L433.932747,108.440117 C435.337852,111.254362 438.690021,118.426003 443.992093,129.960877 L446.695633,135.851898 L446.218485,136.086735 L437.30085,119.17121 L437.182817,119.095606 C435.028207,117.737092 433.160749,117.507728 431.549606,118.380561 L431.419534,118.453746 C428.628696,120.08283 428.07288,123.268479 430.326577,127.571671 L431.032322,128.905855 C432.488986,131.635244 434.437873,135.152942 436.878793,139.458558 L437.734959,140.965643 L437.274216,141.231609 L428.149028,125.647432 L428.030115,125.601177 C425.678667,124.700023 423.988695,124.698808 422.938962,125.556189 L422.850552,125.63178 C421.250254,127.063458 420.4595,128.796025 420.410149,130.903519 L420.408126,131.0379 L430.239803,146.245543 L429.801049,146.546079 L419.980914,133.004067 L419.867279,132.972861 C417.802646,132.423891 416.235077,132.644497 415.136583,133.616128 L415.03174,133.712501 C413.886012,134.806538 413.622583,135.634834 413.65336,137.340736 L413.679273,138.220097 L413.680192,138.318463 L423.902213,152.498383 C424.74678,153.667964 425.195065,154.73305 425.237782,155.697119 L425.241156,155.848502 C425.241156,156.849615 426.545805,161.126502 428.152361,164.672544 C430.443278,169.729126 433.258179,173.585808 436.473279,175.436954 L436.666664,175.545609 L436.410974,176.012116 C432.991164,174.138079 430.047759,170.145293 427.667748,164.89206 L427.49062,164.495559 C425.967085,161.037504 424.755614,157.058085 424.710441,155.911485 L424.709135,155.848502 C424.709135,155.016047 424.339884,154.05906 423.59199,152.98087 L423.470753,152.809623 L413.148725,138.491137 L413.147155,138.219407 C413.145318,138.11346 413.14172,137.994921 413.135591,137.823253 L413.131604,137.713553 C413.054663,135.626509 413.307999,134.622894 414.664307,133.327778 C415.9184,132.130265 417.710775,131.84801 420.010478,132.460498 L420.303079,132.542093 L424.399346,138.191321 L419.875662,131.194007 L419.875662,131.115521 C419.875662,128.761924 420.728277,126.816619 422.495809,125.235329 C423.719275,124.140777 425.638318,124.113413 428.229679,125.107967 L428.515208,125.220323 L429.171572,126.341655 L429.139989,126.261641 C427.682138,122.545454 428.424997,119.667981 431.017877,118.074257 L431.151311,117.994329 C432.98397,116.924559 435.103189,117.1533 437.475375,118.651191 L437.706996,118.800733 L442.147027,127.223131 L439.347592,121.161685 C436.155398,114.271489 434.112979,109.954029 433.221621,108.211953 L433.179539,108.129958 C430.944026,103.788248 432.254337,99.1950245 436.461572,97.9183826 Z" id="路径" fill="#000000" fill-rule="nonzero"></path>
                    <g id="编组-37" transform="translate(223.980741, 522.396092)">
                        <mask id="mask-4" fill="white">
                            <use xlink:href="#path-3"></use>
                        </mask>
                        <use id="路径-167" fill="#FFC7CA" xlink:href="#path-3"></use>
                        <polygon id="路径-180" fill="#000000" mask="url(#mask-4)" points="11.4713241 6.85744427 48.9687699 27.4917659 53.734097 17.178686 12.8252427 3.58588251"></polygon>
                    </g>
                    <path d="M289.865198,598.468028 L145.543429,598.279153 C142.205432,549.989333 166.560401,531.959898 218.608336,544.190848 L226.30598,546.39619 C235.764293,558.201621 247.948092,562.873214 262.857377,560.41097 L265.342258,556.329317 C268.046189,555.03326 270.026559,554.709245 271.283371,555.357274 C272.540182,556.005303 273.169895,557.689868 273.172508,560.41097 L270.286544,566.59706 C284.263951,569.037298 290.790169,579.23617 289.865198,597.193677 L289.865198,598.468028 Z" id="路径-168" fill="#FFFFFF"></path>
                    <path d="M145.278052,598.297494 C145.287682,598.436809 145.403421,598.544956 145.543081,598.545139 L289.864849,598.734014 C290.011899,598.734014 290.131208,598.615064 290.131208,598.468028 L290.131208,597.193677 L290.156877,596.653963 C290.921524,579.099202 284.446883,568.981729 270.753731,566.411366 L270.673011,566.396526 L273.413579,560.523415 L273.438518,560.410715 C273.43582,557.600724 272.7723,555.825718 271.405287,555.120869 C270.054666,554.42447 267.999339,554.760748 265.227271,556.089466 L265.183479,556.115911 C265.156177,556.136221 265.132895,556.161677 265.115037,556.191012 L262.693764,560.167671 L262.814029,560.14854 C247.999656,562.595109 235.911795,557.960301 226.513587,546.22989 C226.479145,546.186901 226.432206,546.155665 226.37925,546.140493 L218.669195,543.931917 C166.455098,531.66192 141.927046,549.819484 145.278052,598.297494 Z M218.54136,544.448442 L226.15245,546.628994 L226.098373,546.56249 C235.61679,558.442941 247.896527,563.151319 262.900725,560.673401 L262.945335,560.661997 C263.002952,560.641812 263.052369,560.602217 263.084599,560.549276 L265.527838,556.535369 L265.457246,556.569169 C268.093038,555.305771 269.998453,554.994021 271.161455,555.59368 L271.25573,555.645269 C272.309714,556.25628 272.871424,557.762739 272.904914,560.194277 L272.905902,560.351201 L270.045473,566.484615 C269.971446,566.643293 270.068291,566.828966 270.240791,566.859082 L270.653532,566.933825 C284.200852,569.476143 290.508935,579.524886 289.599539,597.179996 L289.599117,598.201511 L145.792842,598.013193 L145.808807,598.260813 C142.517068,550.640199 166.184818,532.618923 216.999334,544.093051 L218.54136,544.448442 Z" id="路径-168" fill="#000000" fill-rule="nonzero"></path>
                    <g id="编组-36" transform="translate(102.680007, 527.183837)">
                        <mask id="mask-6" fill="white">
                            <use xlink:href="#path-5"></use>
                        </mask>
                        <use id="路径-165" fill="#FFC7CA" xlink:href="#path-5"></use>
                        <polygon id="路径-181" fill="#000000" mask="url(#mask-6)" points="20.5382182 5.38369341 49.4343746 35.8588251 56.7821326 31.8480264 23.1058823 2.39058834"></polygon>
                    </g>
                    <g id="编组-38" transform="translate(203.763952, 319.714920)">
                        <mask id="mask-8" fill="white">
                            <use xlink:href="#path-7"></use>
                        </mask>
                        <use id="路径-164" fill="#87B1E2" xlink:href="#path-7"></use>
                        <path d="M124.543901,140.775967 C112.414545,142.454174 103.044904,147.56969 96.4349787,156.122515 C89.8250535,164.675341 76.4659075,184.642176 56.3575408,216.02302 L33.5310502,208.436399 L81.9881384,157.681218 C93.0711386,144.487922 105.755388,138.364082 120.040888,139.3097 L122.942154,139.86048 L124.543901,140.775967 Z" id="路径-179" fill="#000000" mask="url(#mask-8)"></path>
                    </g>
                    <g id="编组-40" transform="translate(363.902201, 178.210480)">
                        <mask id="mask-10" fill="white">
                            <use xlink:href="#path-9"></use>
                        </mask>
                        <use id="路径-161" fill="#FFC7CA" xlink:href="#path-9"></use>
                        <polygon id="路径-375" fill="#000000" mask="url(#mask-10)" points="151.613868 49.6094895 183.914473 114.815858 191.478269 108.348279"></polygon>
                    </g>
                    <polygon id="路径-174" fill="#FFCE66" points="378.621069 93.0193219 337.833184 87.7753108 352.933051 188.849911 396.204356 178.845061 429.872776 178.845061 412.932409 93.0193219"></polygon>
                    <path d="M337.867108,87.5114969 C337.692054,87.4889906 337.544017,87.6400656 337.570093,87.8146076 L352.669959,188.889208 L352.680493,188.9336 C352.722689,189.061581 352.856904,189.140521 352.99298,189.109059 L396.236295,179.110575 L429.872776,179.111047 C430.040365,179.111047 430.166202,178.957962 430.133752,178.793559 L413.193386,92.9678197 C413.168784,92.8431798 413.059465,92.7533361 412.932409,92.7533361 L378.621069,92.7533361 L337.867108,87.5114969 Z M338.14814,88.0833224 L378.587144,93.2831358 L412.71351,93.2849405 L429.548775,178.578604 L396.204356,178.579075 L396.144427,178.585913 L353.153254,188.525409 L338.14814,88.0833224 Z" id="路径-174" fill="#000000" fill-rule="nonzero"></path>
                    <path d="M141.584252,598.468028 L0.532020762,598.468028 C1.93803728,558.090601 14.7268624,538.608898 38.898496,540.02292 C63.0701297,541.436942 84.8882136,546.199033 104.352748,554.309193 C114.256143,565.108096 126.222443,570.507548 140.251649,570.507548 L144.53107,568.434217 C145.269211,568.579037 145.769072,568.844761 146.030654,569.231389 C146.423026,569.811331 146.745494,570.914622 145.638282,571.572914 C144.90014,572.011775 143.993087,572.599803 142.917122,573.336997 C146.716747,579.614211 147.754591,585.575008 146.030654,591.21939 C144.77917,595.094291 143.297036,597.510504 141.584252,598.468028 Z" id="路径-166" fill="#FFFFFF"></path>
                    <polygon id="路径-182" fill="#95BDEC" points="0.532020762 595.276199 144.709647 595.276199 143.013986 597.499466 141.644406 598.468028 0.532020762 598.468028"></polygon>
                    <path d="M142.910032,573.465364 L126.088921,595.276199 L144.651337,595.276199 C147.757173,588.811702 147.55406,582.120206 144.042,575.201712 L143.553167,574.280001 L142.910032,573.465364 Z" id="路径-328" fill="#FFCE66"></path>
                    <path d="M0.266006981,598.458773 C0.260932981,598.60921 0.381478494,598.734014 0.532020762,598.734014 L141.584252,598.734014 C141.629703,598.734014 141.674395,598.72237 141.714066,598.700192 C143.499808,597.701881 145.013531,595.234171 146.283791,591.301132 L146.363716,591.03251 C147.946732,585.567368 146.987622,579.819086 143.499036,573.797473 L143.273723,573.414827 L143.782344,573.071943 C144.54659,572.560128 145.210658,572.136612 145.774235,571.801537 C146.863311,571.154027 146.886296,570.02137 146.250982,569.082349 C145.943876,568.628433 145.383089,568.330322 144.582288,568.173208 L144.53958,568.168367 C144.496759,568.166997 144.454014,568.175985 144.415077,568.19485 L140.190663,570.241084 L140.251649,570.241562 C126.297935,570.241562 114.402428,564.874054 104.548807,554.129425 L104.455067,554.06367 C84.9618997,545.94158 63.1145386,541.173099 38.9140323,539.757388 C14.5558558,538.332454 1.67670039,557.95176 0.266006981,598.458773 Z M39.7340798,540.339687 C63.2546921,541.795605 84.5308328,546.439397 103.563479,554.270283 L104.196266,554.531964 L104.156688,554.48896 C114.109857,565.342138 126.146952,570.773533 140.251649,570.773533 L140.291543,570.770525 C140.317876,570.766531 140.343537,570.758594 140.367642,570.746915 L144.564938,568.713262 L144.479851,568.695226 C145.155333,568.827752 145.594269,569.061089 145.810326,569.380429 C146.29457,570.096162 146.278608,570.882754 145.502329,571.344291 C144.758696,571.786417 143.84707,572.377409 142.766761,573.117579 C142.650379,573.197318 142.616497,573.354038 142.689548,573.474723 C146.452128,579.690735 147.476577,585.574599 145.776243,591.141701 L145.691942,591.399415 C144.506991,594.975994 143.123012,597.233223 141.565951,598.171116 L141.51167,598.202043 L0.808139537,598.202043 L0.797870042,598.477284 C2.19937416,558.229442 14.897869,538.885343 38.8829598,540.288452 L39.7340798,540.339687 Z" id="路径-166" fill="#000000" fill-rule="nonzero"></path>
                    <g id="编组-99" transform="translate(552.769572, 0.000000)">
                        <path d="M40.6045869,26.2939047 C35.5656711,12.035415 39.5616998,3.43004664 52.5926728,0.477799483 C72.1391324,-3.95057125 79.0516486,23.6204013 62.6980274,32.9505183 C79.257664,37.0371067 89.4674264,45.550266 93.3273146,58.4899961 C99.117147,77.8995912 85.1793062,88.662434 104.37714,96.07865 C123.574973,103.494866 143.777287,110.868803 147.225551,136.503706 C148.7702,161.991611 137.534024,179.892968 113.517022,190.207777 C83.3679709,196.411056 47.3364803,192.65525 5.42255047,178.94036 C-1.63351662,168.310839 -1.8033293,159.077917 4.91311243,151.241594 C2.21165812,138.993903 3.91959242,130.573208 10.0369153,125.979507 C4.61801939,120.949917 1.90857142,112.012024 1.90857142,99.1658301 C1.90857142,86.3196358 2.39888568,75.5862285 3.37951419,66.9656082 C2.05258775,58.0597254 3.79272909,49.9109007 8.59993822,42.5191339 C15.8107519,31.4314838 25.4173639,26.6780405 34.8306921,26.2939047 L40.6045869,26.2939047 Z" id="路径-169" fill="#2F1B16"></path>
                        <path d="M75.3243854,5.13589239 C75.4688054,5.10894269 75.6077301,5.20416039 75.6346823,5.34856708 C78.1598097,18.877904 73.946729,28.1957839 63.0110991,33.2255371 C62.8776288,33.2869256 62.7196599,33.2285019 62.6582656,33.0950439 C62.5968714,32.961586 62.6553006,32.8036317 62.7887709,32.7422431 C73.4916406,27.8195461 77.5940611,18.7464085 75.111691,5.44616058 C75.0847389,5.30175389 75.1799654,5.16284209 75.3243854,5.13589239 Z" id="路径-193" fill="#2F1B16" fill-rule="nonzero"></path>
                        <path d="M81.2292763,20.2776916 C81.2913309,20.1445394 81.4495873,20.0868988 81.5827518,20.1489477 C81.7159164,20.2109967 81.7735623,20.3692385 81.7115076,20.5023907 C77.9961186,28.4745925 71.719335,32.7312926 62.9155647,33.2494164 C62.7689051,33.2580476 62.6430162,33.1461645 62.6343842,32.9995184 C62.6257521,32.8528723 62.7376455,32.7269951 62.8843052,32.7183638 C71.49303,32.2117189 77.5965511,28.0725197 81.2292763,20.2776916 Z" id="路径-194" fill="#2F1B16" fill-rule="nonzero"></path>
                        <path d="M35.2542032,60.9196695 C35.3925379,60.8702061 35.5447821,60.9422401 35.5942501,61.080562 C37.0111222,65.0424034 40.5952286,67.3794915 46.3934649,68.0896143 L46.6712451,68.1221999 C50.8246351,68.5882262 54.2119089,70.7585876 56.7017445,74.0440725 C58.5747118,76.5155633 59.7928194,79.5543403 59.7928194,81.2039318 C59.7928194,81.3508317 59.6737225,81.4699176 59.526809,81.4699176 C59.3798955,81.4699176 59.2607986,81.3508317 59.2607986,81.2039318 C59.2607986,79.6825491 58.0857324,76.751146 56.2777123,74.3653569 C53.9218448,71.2566509 50.7476376,69.1887841 46.866065,68.6817056 L46.6119172,68.6508535 C40.4650435,67.9611506 36.6091149,65.4982007 35.0932959,61.2596849 C35.0438279,61.121363 35.1158685,60.9691329 35.2542032,60.9196695 Z" id="路径-195" fill="#FFFFFF" fill-rule="nonzero"></path>
                        <path d="M93.5337071,84.5826494 C93.6748254,84.5417973 93.8223445,84.6230686 93.8632004,84.7641739 C95.6457669,90.9206906 101.298426,94.7704088 110.872552,96.3047915 L111.193142,96.35508 C120.464515,97.7781626 129.972393,101.492116 137.36922,107.455292 C146.983867,115.206433 152.423948,126.154621 152.423948,140.5372 C152.423948,161.539469 146.221848,175.950644 133.805,183.73572 C133.680532,183.813758 133.516361,183.776391 133.438315,183.651672 C133.360269,183.527215 133.397902,183.36306 133.52237,183.285021 C145.764526,175.609474 151.891928,161.371868 151.891928,140.5372 C151.891928,126.318539 146.526882,115.52136 137.035292,107.869426 C129.83848,102.067497 120.605664,98.41196 111.564317,96.9520577 L111.112419,96.8808925 C101.158745,95.353082 95.2209582,91.3664302 93.3521658,84.9121122 C93.31131,84.7710069 93.3925888,84.6235014 93.5337071,84.5826494 Z" id="路径-196" fill="#2F1B16" fill-rule="nonzero"></path>
                    </g>
                    <g id="编组-108" transform="translate(548.513406, 42.557726)">
                        <mask id="mask-12" fill="white">
                            <use xlink:href="#path-11"></use>
                        </mask>
                        <use id="路径-170" fill="#FFC7CA" xlink:href="#path-11"></use>
                        <path d="M14.791893,70.9231987 C14.9987023,70.7144976 15.3355557,70.7129486 15.544276,70.9197388 C15.7529964,71.1265289 15.7545456,71.4633512 15.5477363,71.6720522 C12.4441727,74.8040051 9.38459413,75.6281285 6.47688918,74.0370027 C6.21913576,73.8959574 6.1245357,73.5726865 6.26559404,73.3149569 C6.40665238,73.0572273 6.72995318,72.962636 6.9877066,73.1036813 C9.42751413,74.4387688 11.9929467,73.7477479 14.791893,70.9231987 Z" id="路径-172" fill="#000000" fill-rule="nonzero" mask="url(#mask-12)"></path>
                    </g>
                    <path d="M621.274099,140.440497 C656.618211,151.59227 684.720493,184.904013 705.580945,240.375726 C707.90368,246.552298 710.042496,253.66605 711.581413,260.627108 C730.773996,347.441818 694.847464,487.7518 688.288597,496.861456 L539.057395,420.913912 L560.514767,319.251012 L560.514767,306.501912 L556.261285,287.368554 L508.611848,217.093399 C533.622877,182.623185 553.663308,162.220091 568.733144,155.884119 C582.825395,161.510606 599.473591,157.062457 618.677733,142.539673 L621.274099,140.440497 Z" id="路径-160" fill="#FFFFFF"></path>
                    <path d="M621.106844,140.233666 L618.510478,142.332841 C599.380184,156.799604 582.823288,161.223359 568.831788,155.637098 C568.766906,155.611193 568.694437,155.61185 568.630036,155.638927 C553.501579,161.999546 533.434765,182.429499 508.396536,216.937201 L508.37226,216.977798 C508.331534,217.062136 508.3378,217.16321 508.391671,217.24266 L556.01277,287.475846 L560.248719,306.533196 L560.248719,319.220718 L538.797118,420.858987 C538.772277,420.976682 538.829522,421.096398 538.936733,421.15096 L688.167935,497.098505 C688.284899,497.15803 688.427802,497.123364 688.504482,497.016862 L688.61204,496.860163 C690.403881,494.132923 693.903973,483.211909 697.651983,468.380183 L698.098847,466.598503 C702.413257,449.267494 706.566592,428.83156 709.85458,407.924997 C718.788153,351.121159 720.361702,299.111094 711.841153,260.569696 C710.332735,253.746595 708.211986,246.616415 705.829935,240.28211 C684.943438,184.741138 656.788624,151.367124 621.354148,140.18684 C621.269076,140.159998 621.176212,140.174508 621.106844,140.233666 Z M618.838194,142.751818 L621.329491,140.737337 L621.194051,140.694154 C656.447799,151.817415 684.497549,185.066888 705.331956,240.469343 C707.705162,246.780128 709.818714,253.886115 711.321673,260.684519 C719.824921,299.147661 718.253166,351.098448 709.329018,407.842357 C705.986829,429.093557 701.7499,449.857934 697.359541,467.362615 L696.803667,469.557919 C693.240153,483.493593 689.932983,493.76364 688.230627,496.470319 L688.199713,496.517803 L539.359456,420.769306 L560.775044,319.305937 L560.780777,319.251012 L560.780777,306.501912 L560.774439,306.444196 L556.520957,287.310838 L556.481462,287.219292 L508.936381,217.098666 L509.575184,216.220832 C533.961924,182.752268 553.575372,162.783641 568.384414,156.32287 L568.737111,156.171429 L568.6345,156.13114 C582.827501,161.797853 599.566999,157.32531 618.838194,142.751818 Z" id="路径-160" fill="#000000" fill-rule="nonzero"></path>
                    <g id="编组-2" opacity="0.639229911" transform="translate(524.572471, 157.995560)" fill="#DDE9FF">
                        <polygon id="矩形" transform="translate(50.575174, 28.228785) rotate(31.000000) translate(-50.575174, -28.228785) " points="35.294945 25.8050246 65.8480226 25.8520749 65.8554031 30.6525449 35.3023255 30.6054946"></polygon>
                        <polygon id="矩形备份" transform="translate(15.262346, 61.262534) rotate(-21.000000) translate(-15.262346, -61.262534) " points="-0.00404703614 58.8789831 30.5343314 58.8433266 30.5287383 63.6460842 -0.00964021314 63.6817407"></polygon>
                        <polygon id="矩形备份" transform="translate(70.326494, 79.881539) rotate(19.000000) translate(-70.326494, -79.881539) " points="55.0559275 77.4635691 85.5919152 77.4963763 85.5970614 82.2995089 55.0610738 82.2667017"></polygon>
                        <polygon id="矩形" transform="translate(123.595073, 10.210422) rotate(31.000000) translate(-123.595073, -10.210422) " points="108.314902 7.78666212 138.867864 7.83371246 138.875244 12.6341824 108.322283 12.5871321"></polygon>
                        <polygon id="矩形备份" transform="translate(88.282195, 43.244141) rotate(-21.000000) translate(-88.282195, -43.244141) " points="73.0158025 40.8605909 103.554181 40.8249344 103.548588 45.6276919 73.0102094 45.6633485"></polygon>
                        <polygon id="矩形备份" transform="translate(143.346344, 61.863147) rotate(19.000000) translate(-143.346344, -61.863147) " points="128.075777 59.4451768 158.611765 59.4779841 158.616911 64.2811167 128.080923 64.2483094"></polygon>
                        <polygon id="矩形备份" transform="translate(127.940489, 205.072043) rotate(19.000000) translate(-127.940489, -205.072043) " points="112.669922 202.654073 143.20591 202.68688 143.211056 207.490013 112.675068 207.457206"></polygon>
                        <polygon id="矩形" transform="translate(35.434584, 149.066525) rotate(-30.000000) translate(-35.434584, -149.066525) " points="20.1625364 146.689237 50.7138715 146.643088 50.7066325 151.443813 20.1552974 151.489962"></polygon>
                        <polygon id="矩形备份" transform="translate(31.578228, 199.065912) rotate(-82.000000) translate(-31.578228, -199.065912) " points="16.2647791 196.679001 46.8939817 196.664313 46.8916777 201.452824 16.2624751 201.467512"></polygon>
                        <polygon id="矩形备份" transform="translate(90.029498, 156.773098) rotate(-42.000000) translate(-90.029498, -156.773098) " points="74.7474504 154.400886 105.319859 154.34789 105.311546 159.14531 74.7391373 159.198305"></polygon>
                        <polygon id="矩形" transform="translate(123.501629, 253.850294) rotate(-30.000000) translate(-123.501629, -253.850294) " points="108.229581 251.473006 138.780916 251.426857 138.773677 256.227583 108.222342 256.273731"></polygon>
                        <polygon id="矩形备份" transform="translate(135.173024, 300.858533) rotate(-82.000000) translate(-135.173024, -300.858533) " points="119.859574 298.471622 150.488777 298.456934 150.486473 303.245444 119.85727 303.260132"></polygon>
                        <polygon id="矩形备份" transform="translate(178.096543, 261.556867) rotate(-42.000000) translate(-178.096543, -261.556867) " points="162.814495 259.184655 193.386904 259.131659 193.378591 263.929079 162.806182 263.982075"></polygon>
                        <polygon id="矩形" transform="translate(166.602235, 113.895343) rotate(67.000000) translate(-166.602235, -113.895343) " points="151.29173 111.480807 181.906726 111.519139 181.912739 116.309878 151.297743 116.271546"></polygon>
                        <polygon id="矩形备份" transform="translate(118.684372, 119.791333) rotate(15.000000) translate(-118.684372, -119.791333) " points="103.4164 117.376118 133.948164 117.402762 133.952344 122.206547 103.42058 122.179903"></polygon>
                        <polygon id="矩形备份" transform="translate(152.326273, 167.333315) rotate(55.000000) translate(-152.326273, -167.333315) " points="137.024243 164.911434 167.620448 164.961508 167.628303 169.755195 137.032098 169.705121"></polygon>
                        <polygon id="矩形" transform="translate(69.459576, 225.991593) rotate(40.000000) translate(-69.459576, -225.991593) " points="54.1710975 223.566355 84.7398232 223.618833 84.7480551 228.41683 54.1793294 228.364352"></polygon>
                        <polygon id="矩形备份" transform="translate(29.431826, 253.075173) rotate(-12.000000) translate(-29.431826, -253.075173) " points="14.1688768 250.683919 44.6981749 250.662245 44.6947751 255.466427 14.1654769 255.488101"></polygon>
                        <polygon id="矩形备份" transform="translate(80.915524, 280.108954) rotate(28.000000) translate(-80.915524, -280.108954) " points="65.6379683 277.686255 96.1861491 277.730433 96.193079 282.531652 65.6448981 282.487475"></polygon>
                    </g>
                    <g id="编组-11" transform="translate(115.980526, 153.207815)">
                        <mask id="mask-14" fill="white">
                            <use xlink:href="#path-13"></use>
                        </mask>
                        <use id="路径-163" fill="#95BDEC" xlink:href="#path-13"></use>
                        <path d="M562.922246,368.629643 L559.017539,366.93622 L558.805841,367.424263 L562.710548,369.117687 L562.922246,368.629643 Z M555.112832,365.242796 L551.208125,363.549373 L550.996427,364.037416 L554.901134,365.730839 L555.112832,365.242796 Z M547.303418,361.855949 L543.398711,360.162525 L543.187014,360.650569 L547.09172,362.343992 L547.303418,361.855949 Z M539.494004,358.469102 L535.589297,356.775678 L535.3776,357.263722 L539.282307,358.957145 L539.494004,358.469102 Z M531.68459,355.082255 L527.779883,353.388831 L527.568186,353.876874 L531.472893,355.570298 L531.68459,355.082255 Z M523.875176,351.695408 L519.97047,350.001984 L519.758772,350.490027 L523.663479,352.183451 L523.875176,351.695408 Z M516.065763,348.30856 L512.161056,346.615137 L511.949358,347.10318 L515.854065,348.796604 L516.065763,348.30856 Z M508.256349,344.921713 L504.351642,343.22829 L504.139944,343.716333 L508.044651,345.409757 L508.256349,344.921713 Z M500.446935,341.534866 L496.542228,339.841443 L496.33053,340.329486 L500.235237,342.022909 L500.446935,341.534866 Z M492.637521,338.148019 L488.732814,336.454595 L488.521117,336.942639 L492.425824,338.636062 L492.637521,338.148019 Z M484.828107,334.761172 L480.9234,333.067748 L480.711703,333.555792 L484.61641,335.249215 L484.828107,334.761172 Z M477.018693,331.374325 L473.113986,329.680901 L472.902289,330.168944 L476.806996,331.862368 L477.018693,331.374325 Z M469.209279,327.987478 L465.304573,326.294054 L465.092875,326.782097 L468.997582,328.475521 L469.209279,327.987478 Z M461.399866,324.60063 L457.495159,322.907207 L457.283461,323.39525 L461.188168,325.088674 L461.399866,324.60063 Z M453.590452,321.213783 L449.685745,319.52036 L449.474047,320.008403 L453.378754,321.701827 L453.590452,321.213783 Z M445.781038,317.826936 L441.876331,316.133513 L441.664634,316.621556 L445.56934,318.314979 L445.781038,317.826936 Z M437.971624,314.440089 L434.066917,312.746665 L433.85522,313.234709 L437.759927,314.928132 L437.971624,314.440089 Z M430.16221,311.053242 L426.257503,309.359818 L426.045806,309.847862 L429.950513,311.541285 L430.16221,311.053242 Z M422.352796,307.666395 L418.448089,305.972971 L418.236392,306.461014 L422.141099,308.154438 L422.352796,307.666395 Z M414.543383,304.279548 L410.638676,302.586124 L410.426978,303.074167 L414.331685,304.767591 L414.543383,304.279548 Z M406.733969,300.8927 L402.829262,299.199277 L402.617564,299.68732 L406.522271,301.380744 L406.733969,300.8927 Z M398.924555,297.505853 L395.019848,295.81243 L394.80815,296.300473 L398.712857,297.993896 L398.924555,297.505853 Z M391.115141,294.119006 L387.210434,292.425583 L386.998737,292.913626 L390.903443,294.607049 L391.115141,294.119006 Z M383.305727,290.732159 L379.40102,289.038735 L379.189323,289.526779 L383.09403,291.220202 L383.305727,290.732159 Z M375.496313,287.345312 L371.591606,285.651888 L371.379909,286.139931 L375.284616,287.833355 L375.496313,287.345312 Z M367.686899,283.958465 L363.782193,282.265041 L363.570495,282.753084 L367.475202,284.446508 L367.686899,283.958465 Z M359.877486,280.571618 L355.972779,278.878194 L355.761081,279.366237 L359.665788,281.059661 L359.877486,280.571618 Z M352.068072,277.18477 L348.163365,275.491347 L347.951667,275.97939 L351.856374,277.672814 L352.068072,277.18477 Z M344.258658,273.797923 L340.353951,272.1045 L340.142253,272.592543 L344.04696,274.285966 L344.258658,273.797923 Z M336.449244,270.411076 L332.544537,268.717652 L332.33284,269.205696 L336.237547,270.899119 L336.449244,270.411076 Z M328.63983,267.024229 L324.735123,265.330805 L324.523426,265.818849 L328.428133,267.512272 L328.63983,267.024229 Z M320.830416,263.637382 L316.925709,261.943958 L316.714012,262.432001 L320.618719,264.125425 L320.830416,263.637382 Z M313.021003,260.250535 L309.116296,258.557111 L308.904598,259.045154 L312.809305,260.738578 L313.021003,260.250535 Z M305.211589,256.863687 L301.306882,255.170264 L301.095184,255.658307 L304.999891,257.351731 L305.211589,256.863687 Z M297.402175,253.47684 L293.497468,251.783417 L293.28577,252.27146 L297.190477,253.964884 L297.402175,253.47684 Z M289.592761,250.089993 L285.688054,248.39657 L285.476357,248.884613 L289.381063,250.578036 L289.592761,250.089993 Z M281.783347,246.703146 L277.87864,245.009722 L277.666943,245.497766 L281.57165,247.191189 L281.783347,246.703146 Z M273.973933,243.316299 L270.069226,241.622875 L269.857529,242.110919 L273.762236,243.804342 L273.973933,243.316299 Z M266.202194,239.865382 C264.900415,239.265894 263.60944,238.678765 262.329267,238.103994 L262.11134,238.589288 C263.389958,239.163361 264.679391,239.749789 265.979637,240.348571 L266.202194,239.865382 Z M258.431737,236.377686 C257.11522,235.802683 255.810532,235.241212 254.517672,234.693275 L254.310051,235.183066 C255.601118,235.730243 256.904027,236.290948 258.218779,236.865181 L258.431737,236.377686 Z M250.583736,233.052795 C249.253589,232.507347 247.936443,231.976775 246.632296,231.461079 L246.436645,231.955772 C247.738701,232.470641 249.053775,233.000379 250.381868,233.544985 L250.583736,233.052795 Z M242.662199,229.92189 C241.316134,229.410652 239.984499,228.915929 238.667294,228.437722 L238.485725,228.937755 C239.800459,229.415065 241.129646,229.908878 242.473286,230.419195 L242.662199,229.92189 Z M234.653931,227.016378 C233.290693,226.545988 231.943627,226.094111 230.612731,225.660746 L230.447994,226.166573 C231.775921,226.598971 233.120051,227.049863 234.480381,227.51925 L234.653931,227.016378 Z M226.550911,224.380324 C225.168736,223.959338 223.804903,223.559357 222.459409,223.180381 L222.315158,223.692426 C223.657019,224.070378 225.017261,224.469306 226.395885,224.88921 L226.550911,224.380324 Z M218.33892,222.070738 C216.936466,221.710902 215.555103,221.375232 214.194828,221.063727 L214.076058,221.582274 C215.431789,221.892737 216.808666,222.227318 218.206688,222.586016 L218.33892,222.070738 Z M210.027229,220.171844 C208.60332,219.889187 207.204067,219.634799 205.829467,219.408683 L205.743105,219.933599 C207.111881,220.158757 208.505391,220.412101 209.923631,220.693633 L210.027229,220.171844 Z M201.612668,218.793926 C200.169011,218.611517 198.754679,218.462761 197.369666,218.347664 L197.325602,218.877807 C198.702965,218.992269 200.109756,219.140232 201.54597,219.321701 L201.612668,218.793926 Z M193.105226,218.096485 C191.646025,218.047496 190.222436,218.03943 188.834455,218.072297 L188.847051,218.60412 C190.224752,218.571496 191.638194,218.579505 193.087373,218.628157 L193.105226,218.096485 Z M184.560594,218.312995 C183.102714,218.445412 181.688711,218.628322 180.318587,218.861747 L180.407947,219.386161 C181.764219,219.155096 183.164476,218.973964 184.608723,218.842786 L184.560594,218.312995 Z M176.12066,219.771363 C174.707859,220.147688 173.348745,220.585836 172.04335,221.085833 L172.233661,221.582605 C173.521382,221.089377 174.862687,220.65697 176.25761,220.285408 L176.12066,219.771363 Z M168.115267,222.862148 C166.833918,223.538629 165.614704,224.286477 164.457696,225.105677 L164.765146,225.539827 C165.903175,224.734063 167.10266,223.998317 168.363672,223.332574 L168.115267,222.862148 Z M161.196656,227.850007 L158.288699,230.957571 L158.67718,231.321032 L161.585137,228.213468 L161.196656,227.850007 Z M155.380741,234.065134 L152.472784,237.172697 L152.861266,237.536158 L155.769223,234.428595 L155.380741,234.065134 Z M149.564827,240.28026 L146.65687,243.387823 L147.045351,243.751284 L149.953308,240.643721 L149.564827,240.28026 Z M143.748912,246.495386 L140.840955,249.60295 L141.229437,249.966411 L144.137394,246.858847 L143.748912,246.495386 Z M137.932998,252.710513 L135.025041,255.818076 L135.413522,256.181537 L138.321479,253.073974 L137.932998,252.710513 Z M132.117083,258.925639 L129.209126,262.033202 L129.597608,262.396663 L132.505565,259.2891 L132.117083,258.925639 Z M126.301169,265.140765 L123.393212,268.248329 L123.781693,268.61179 L126.68965,265.504226 L126.301169,265.140765 Z M120.485254,271.355892 L117.577297,274.463455 L117.965779,274.826916 L120.873736,271.719353 L120.485254,271.355892 Z M114.66934,277.571018 L111.761383,280.678581 L112.149864,281.042042 L115.057821,277.934479 L114.66934,277.571018 Z M108.853425,283.786144 L105.945468,286.893707 L106.33395,287.257169 L109.241907,284.149605 L108.853425,283.786144 Z M103.037511,290.001271 L100.129554,293.108834 L100.518035,293.472295 L103.425992,290.364732 L103.037511,290.001271 Z M97.2215964,296.216397 L94.3136392,299.32396 L94.7021205,299.687421 L97.6100778,296.579858 L97.2215964,296.216397 Z M91.4056819,302.431523 L88.4977247,305.539086 L88.886206,305.902547 L91.7941633,302.794984 L91.4056819,302.431523 Z M85.5897674,308.64665 L82.6818102,311.754213 L83.0702915,312.117674 L85.9782487,309.010111 L85.5897674,308.64665 Z M79.7738529,314.861776 L76.8658957,317.969339 L77.254377,318.3328 L80.1623342,315.225237 L79.7738529,314.861776 Z M73.9579384,321.076902 L71.0499812,324.184465 L71.4384625,324.547926 L74.3464197,321.440363 L73.9579384,321.076902 Z M68.1420239,327.292029 L65.2340667,330.399592 L65.622548,330.763053 L68.5305052,327.65549 L68.1420239,327.292029 Z M62.3261094,333.507155 L59.4181522,336.614718 L59.8066335,336.978179 L62.7145907,333.870616 L62.3261094,333.507155 Z M56.5101949,339.722281 L53.6022377,342.829844 L53.990719,343.193305 L56.8986762,340.085742 L56.5101949,339.722281 Z M50.6942804,345.937407 L47.7863232,349.044971 L48.1748045,349.408432 L51.0827617,346.300869 L50.6942804,345.937407 Z M44.8783659,352.152534 L44.7591457,352.279937 L45.147627,352.643399 L45.2668472,352.515995 L44.8783659,352.152534 Z" id="路径-178" fill="#FFFFFF" fill-rule="nonzero" mask="url(#mask-14)"></path>
                        <path d="M409.018139,256.881242 C496.353522,290.423566 559.438621,293.300867 598.290327,265.643483 L599.460234,264.796034 L600.407234,266.080674 C561.505656,294.752488 498.39717,292.476584 411.09867,259.3833 L408.445856,258.37104 L409.018139,256.881242 Z" id="路径-184" fill="#FFFFFF" fill-rule="nonzero" mask="url(#mask-14)"></path>
                        <path d="M25.601699,339.280149 L28.8541984,342.025108 L29.1973501,341.618584 L25.9448507,338.873624 L25.601699,339.280149 Z M32.1066979,344.770068 L35.3591973,347.515028 L35.702349,347.108503 L32.4498496,344.363543 L32.1066979,344.770068 Z M38.6116968,350.259988 L41.8641962,353.004947 L42.2073479,352.598422 L38.9548485,349.853463 L38.6116968,350.259988 Z M45.1166957,355.749907 L48.3691951,358.494867 L48.7123468,358.088342 L45.4598474,355.343382 L45.1166957,355.749907 Z M51.6216946,361.239827 L54.874194,363.984786 L55.2173457,363.578261 L51.9648462,360.833302 L51.6216946,361.239827 Z M58.1266935,366.729746 L61.3791929,369.474706 L61.7223446,369.068181 L58.4698451,366.323221 L58.1266935,366.729746 Z M64.6316923,372.219665 L67.8841918,374.964625 L68.2273435,374.5581 L64.974844,371.813141 L64.6316923,372.219665 Z M71.1366912,377.709585 L74.3891907,380.454545 L74.7323424,380.04802 L71.4798429,377.30306 L71.1366912,377.709585 Z M77.6416901,383.199504 L80.8941896,385.944464 L81.2373413,385.537939 L77.9848418,382.79298 L77.6416901,383.199504 Z M84.146689,388.689424 L87.3991885,391.434384 L87.7423402,391.027859 L84.4898407,388.282899 L84.146689,388.689424 Z M90.6516879,394.179343 L93.9041874,396.924303 L94.247339,396.517778 L90.9948396,393.772818 L90.6516879,394.179343 Z" id="路径-374" fill="#FFFFFF" fill-rule="nonzero" mask="url(#mask-14)"></path>
                        <path d="M345.658707,235.993232 C380.736175,262.681302 403.803551,270.92413 414.828653,260.84839 L415.159061,260.537458 L415.529273,260.919508 C404.471241,271.632909 381.439533,263.692285 346.401968,237.224314 L345.336548,236.416583 L345.658707,235.993232 Z" id="路径-500" fill="#FFFFFF" fill-rule="nonzero" mask="url(#mask-14)"></path>
                    </g>
                    <path d="M586.28688,128.221853 C590.3981,126.706094 595.718308,123.154049 602.247502,117.565719 C597.122881,124.212663 592.15485,129.000408 587.343408,131.928952 L586.28688,128.221853 Z" id="路径-171" fill="#2F1B16"></path>
                    <ellipse id="椭圆形" fill="#FFFFFF" transform="translate(566.808654, 84.832523) rotate(6.000000) translate(-566.808654, -84.832523) " cx="566.808654" cy="84.8325226" rx="3.68557549" ry="7.03684973"></ellipse>
                    <path d="M566.602862,90.9540913 C568.365822,90.9540913 569.794917,88.0960663 569.794917,84.5704652 C569.794917,81.0448642 568.365689,78.1867604 566.602729,78.1867604 C564.839769,78.1867604 563.160877,81.070061 563.160877,84.595662 C563.160877,88.1212631 564.839902,90.9540913 566.602862,90.9540913 Z" id="椭圆形" fill="#000000" transform="translate(566.477897, 84.570426) rotate(6.000000) translate(-566.477897, -84.570426) "></path>
                    <path d="M565.304818,66.7438742 C570.202989,65.9367667 574.224675,66.4155712 577.349085,68.2104769 C577.731243,68.4300184 577.863053,68.9177636 577.643491,69.2998862 C577.423929,69.6820089 576.936139,69.813807 576.553981,69.5942655 C573.782565,68.0021472 570.126281,67.5668459 565.564337,68.3185507 C565.129462,68.3902083 564.718831,68.0957949 564.647167,67.6609599 C564.575503,67.226125 564.869943,66.8155317 565.304818,66.7438742 Z" id="路径-173" fill="#000000" fill-rule="nonzero" transform="translate(571.193061, 68.032664) rotate(5.000000) translate(-571.193061, -68.032664) "></path>
                    <path d="M447.397542,140.870557 C448.801898,139.974786 450.695604,139.947642 453.065289,140.765614 L453.288841,140.844774 L453.384072,140.904632 L456.659799,144.107688 C456.764836,144.210395 456.766717,144.378797 456.664001,144.483825 C456.572697,144.577183 456.429481,144.589042 456.325012,144.518391 L456.287829,144.488027 L453.053452,141.325166 L452.890125,141.267919 C450.733576,140.52361 449.042846,140.522879 447.805852,141.244479 L447.683665,141.319046 C446.048488,142.362046 445.671145,145.220984 446.506976,146.562923 L446.545115,146.62007 C447.11884,147.433623 450.518574,150.660507 456.652157,156.202293 C456.761162,156.30078 456.769681,156.468977 456.671184,156.577972 C456.572688,156.686966 456.404475,156.695484 456.29547,156.596997 L454.709365,155.160299 C449.356342,150.298152 446.496928,147.553069 446.055377,146.844152 C445.075642,145.271173 445.496414,142.083194 447.397542,140.870557 Z" id="路径-175" fill="#000000" fill-rule="nonzero"></path>
                    <line x1="378.798782" y1="93.0950266" x2="396.355468" y2="178.21048" id="路径-176" stroke="#000000"></line>
                    <polygon id="路径-177" fill="#000000" fill-rule="nonzero" points="350.628151 103.469793 377.229189 106.12965 377.176251 106.658982 350.575213 103.999124"></polygon>
                    <polygon id="路径-177" fill="#000000" fill-rule="nonzero" points="351.160172 110.385423 377.76121 113.045281 377.708272 113.574612 351.107234 110.914755"></polygon>
                    <polygon id="路径-177" fill="#000000" fill-rule="nonzero" points="352.224213 116.769082 378.825252 119.42894 378.772313 119.958271 352.171275 117.298414"></polygon>
                    <path d="M615.016001,87.8331854 C617.368323,86.3631505 619.255905,85.8731388 620.678745,86.3631505 C622.813006,87.098168 624.415628,93.5885907 615.016001,103.460974 L615.016001,87.8331854 Z" id="路径-504" fill="#FFBDC1"></path>
                    <polygon id="路径-183" fill="#95BDEC" points="145.241668 594.212256 289.951315 594.212256 289.951315 598.468028 145.537715 598.257035"></polygon>
                    <polygon id="路径-327" fill="#4A82ED" fill-rule="nonzero" points="31.6390199 532.503552 31.6390199 557.506217 30.5911938 557.506217 30.5911938 532.503552"></polygon>
                    <polygon id="路径-327" fill="#4A82ED" fill-rule="nonzero" points="37.4912483 532.503552 37.4912483 557.506217 36.4434222 557.506217 36.4434222 532.503552"></polygon>
                    <polygon id="路径-327" fill="#4A82ED" fill-rule="nonzero" points="44.4075182 532.503552 44.4075182 557.506217 43.3596921 557.506217 43.3596921 532.503552"></polygon>
                    <path d="M270.325745,566.549734 L268.138464,594.212256 L289.951315,594.212256 C289.901263,579.883539 284.563763,571.061963 273.938817,567.747527 L271.965148,567.090029 L270.325745,566.549734 Z" id="路径-329" fill="#FFCE66"></path>
                </g>
            </g>
        </g>
    </g>
</svg>