<?xml version="1.0" encoding="utf-8"?>
<!-- Generator: Adobe Illustrator 23.0.1, SVG Export Plug-In . SVG Version: 6.00 Build 0)  -->
<svg version="1.1" id="图层_1" xmlns="http://www.w3.org/2000/svg" xmlns:xlink="http://www.w3.org/1999/xlink" x="0px" y="0px"
	 viewBox="0 0 245 204" style="enable-background:new 0 0 245 204;" xml:space="preserve">
<style type="text/css">
	.st0{fill:#3F0605;}
	.st1{fill:#FF4E69;}
	.st2{fill:#FFFFFF;}
	.st3{fill:#192B2D;}
</style>
<g>
	<path class="st0" d="M127.7,69.9c-10.8,1.6-29.1-19.1-37.9-12.7c-9.6,7,7.3,30.3,5.7,42C93.7,112.7,51.1,132,72.4,148
		c9.4,7,39.4-20.6,44.2-18.3c12.8,6.2,4.6,36.2,21.9,36.1c21.3-0.1,3.8-36.6,14.2-42.6c8-4.5,24.2,9,30.8-2.3
		c9.6-16.5-34.2-31.6-33.3-32.1c0.9-0.6,30.2-34.7,10.7-45.9C148.2,35.5,142.2,67.8,127.7,69.9z"/>
	<path class="st1" d="M127.7,66C116.9,67.6,98.6,47,89.8,53.3c-9.6,7,7.3,30.3,5.7,42c-1.8,13.5-44.4,32.8-23.1,48.8
		c9.4,7,39.4-20.6,44.2-18.3c12.8,6.2,4.6,36.2,21.9,36.1c21.3-0.1,3.8-36.6,14.2-42.6c8-4.5,24.2,9,30.8-2.3
		c9.6-16.5-34.2-31.6-33.3-32.1c0.9-0.6,30.2-34.7,10.7-45.9C148.2,31.6,142.2,63.9,127.7,66z"/>
	<ellipse class="st2" cx="97.4" cy="72.5" rx="5.4" ry="5.4"/>
	<ellipse class="st2" cx="106.9" cy="65.6" rx="4.6" ry="4.6"/>
	<ellipse class="st3" cx="98.1" cy="71.9" rx="2.4" ry="2.4"/>
	<ellipse class="st3" cx="106.9" cy="65.6" rx="2.4" ry="2.4"/>
	<path class="st0" d="M125.7,143.1c0,0-0.1,0-0.1,0c-0.2-0.1-0.3-0.3-0.2-0.5c0.1-0.3,10.7-26.2,5.1-39.2c-1.3-2.9-3.9-5.4-7.7-7.4
		c-3.1-1.6-7.1-2.8-11.7-3.7c-8-1.5-15.3-1.4-15.4-1.4c0,0,0,0,0,0c-0.2,0-0.4-0.2-0.4-0.4c0-0.2,0.2-0.4,0.4-0.4
		c0.1,0,7.5-0.1,15.5,1.4c4.7,0.9,8.7,2.2,11.9,3.8c4,2,6.7,4.7,8.1,7.8c2.4,5.6,2.3,14-0.4,24.9c-2,8.1-4.7,14.8-4.7,14.8
		C126,143,125.8,143.1,125.7,143.1z"/>
	<path class="st0" d="M149.7,98.1c-5.7,0-10-0.9-12.8-2.7c-3.9-2.5-7.4-8.3-10.5-17.1c-2.3-6.6-3.5-12.5-3.5-12.5
		c0-0.2,0.1-0.4,0.3-0.4c0.2,0,0.4,0.1,0.4,0.3c0,0.2,4.9,23.4,13.7,29.2c3.7,2.4,10.5,3.1,19.7,2.2c7-0.7,13-2.2,13.1-2.2
		c0.2,0,0.4,0.1,0.5,0.3s-0.1,0.4-0.3,0.4c-0.1,0-6.1,1.5-13.2,2.2C154.4,97.9,151.9,98.1,149.7,98.1z"/>
</g>
</svg>
